<svg width="22" height="22" viewBox="0 0 22 22" fill="none" xmlns="http://www.w3.org/2000/svg">
<rect width="22" height="22" fill="#2C2C2C"/>
<g id="#registro" clip-path="url(#clip0_0_1)">
<rect width="1440" height="1024" transform="translate(-637 -500)" fill="#090707"/>
<g id="container-log">
<rect width="1440" height="924" transform="translate(-637 -400)" fill="#090707"/>
<g id="log-in-info">
<g id="log-info">
<rect id="Rectangle 16" x="-112.5" y="-106.8" width="391" height="436" rx="5" fill="#D9D9D9"/>
<g id="Frame 303">
<g id="btn-google">
<rect x="-46.0312" y="-9.20003" width="263" height="41" rx="20.5" fill="#C4C4C4"/>
<g id="google-icon">
<path id="vector" d="M21.1586 11.533C21.1586 10.67 21.0888 10.04 20.9383 9.38698H11.1758V13.283H16.9068C16.7913 14.252 16.1672 15.71 14.7803 16.69L14.7609 16.82L17.8482 19.235L18.0617 19.257C20.0261 17.425 21.1586 14.73 21.1586 11.533Z" fill="#4285F4"/>
<path id="vector_2" d="M11.1752 21.8C13.983 21.8 16.3394 20.867 18.0612 19.257L14.7797 16.69C13.9014 17.308 12.7232 17.74 11.1752 17.74C8.42567 17.74 6.09157 15.908 5.25982 13.377L5.1375 13.387L1.92793 15.895L1.88623 16.013C3.59534 19.443 7.10769 21.8 11.1752 21.8Z" fill="#34A853"/>
<path id="vector_3" d="M5.26166 13.377C5.04232 12.723 4.91519 12.023 4.91519 11.3C4.91519 10.577 5.04236 9.87698 5.25005 9.22298L5.24425 9.08397L1.99393 6.53596L1.88813 6.58696C1.18353 8.00996 0.778809 9.60797 0.778809 11.3C0.778809 12.992 1.18353 14.59 1.88813 16.013L5.26166 13.377Z" fill="#FBBC05"/>
<path id="vector_4" d="M11.1752 4.85997C13.1279 4.85997 14.4449 5.71196 15.1961 6.42296L18.131 3.52998C16.3287 1.83798 13.983 0.799973 11.1752 0.799973C7.10866 0.799973 3.59534 3.15696 1.88623 6.58696L5.24815 9.22298C6.09154 6.69198 8.42567 4.85997 11.1752 4.85997Z" fill="#EB4335"/>
</g>
</g>
</g>
</g>
</g>
</g>
</g>
<defs>
<clipPath id="clip0_0_1">
<rect width="1440" height="1024" fill="white" transform="translate(-637 -500)"/>
</clipPath>
</defs>
</svg>
